<svg xmlns="http://www.w3.org/2000/svg" viewBox="0 0 20 20" width="56" height="56" shape-rendering="crispEdges"><rect width="20" height="20" rx="3" fill="#0B1220"/><rect x="3" y="3" width="1" height="1" fill="#FB923C"/><rect x="4" y="3" width="1" height="1" fill="#FB923C"/><rect x="5" y="3" width="1" height="1" fill="#FB923C"/><rect x="6" y="3" width="1" height="1" fill="#FB923C"/><rect x="7" y="3" width="1" height="1" fill="#FB923C"/><rect x="8" y="3" width="1" height="1" fill="#FB923C"/><rect x="9" y="3" width="1" height="1" fill="#FB923C"/><rect x="10" y="3" width="1" height="1" fill="#FB923C"/><rect x="11" y="3" width="1" height="1" fill="#FB923C"/><rect x="12" y="3" width="1" height="1" fill="#FB923C"/><rect x="13" y="3" width="1" height="1" fill="#FB923C"/><rect x="14" y="3" width="1" height="1" fill="#FB923C"/><rect x="15" y="3" width="1" height="1" fill="#FB923C"/><rect x="16" y="3" width="1" height="1" fill="#FB923C"/><rect x="3" y="4" width="1" height="1" fill="#FB923C"/><rect x="16" y="4" width="1" height="1" fill="#FB923C"/><rect x="3" y="5" width="1" height="1" fill="#FB923C"/><rect x="5" y="5" width="1" height="1" fill="#FFFFFF"/><rect x="6" y="5" width="1" height="1" fill="#FFFFFF"/><rect x="7" y="5" width="1" height="1" fill="#FFFFFF"/><rect x="8" y="5" width="1" height="1" fill="#FFFFFF"/><rect x="9" y="5" width="1" height="1" fill="#FFFFFF"/><rect x="16" y="5" width="1" height="1" fill="#FB923C"/><rect x="3" y="6" width="1" height="1" fill="#FB923C"/><rect x="10" y="6" width="1" height="1" fill="#FFFFFF"/><rect x="11" y="6" width="1" height="1" fill="#FFFFFF"/><rect x="16" y="6" width="1" height="1" fill="#FB923C"/><rect x="3" y="7" width="1" height="1" fill="#FB923C"/><rect x="5" y="7" width="1" height="1" fill="#FFFFFF"/><rect x="6" y="7" width="1" height="1" fill="#FFFFFF"/><rect x="7" y="7" width="1" height="1" fill="#FFFFFF"/><rect x="12" y="7" width="1" height="1" fill="#FFFFFF"/><rect x="16" y="7" width="1" height="1" fill="#FB923C"/><rect x="3" y="8" width="1" height="1" fill="#FB923C"/><rect x="8" y="8" width="1" height="1" fill="#FFFFFF"/><rect x="9" y="8" width="1" height="1" fill="#FFFFFF"/><rect x="13" y="8" width="1" height="1" fill="#FFFFFF"/><rect x="16" y="8" width="1" height="1" fill="#FB923C"/><rect x="3" y="9" width="1" height="1" fill="#FB923C"/><rect x="10" y="9" width="1" height="1" fill="#FFFFFF"/><rect x="14" y="9" width="1" height="1" fill="#FFFFFF"/><rect x="16" y="9" width="1" height="1" fill="#FB923C"/><rect x="3" y="10" width="1" height="1" fill="#FB923C"/><rect x="5" y="10" width="1" height="1" fill="#FFFFFF"/><rect x="6" y="10" width="1" height="1" fill="#FFFFFF"/><rect x="11" y="10" width="1" height="1" fill="#FFFFFF"/><rect x="14" y="10" width="1" height="1" fill="#FFFFFF"/><rect x="16" y="10" width="1" height="1" fill="#FB923C"/><rect x="3" y="11" width="1" height="1" fill="#FB923C"/><rect x="5" y="11" width="1" height="1" fill="#FFFFFF"/><rect x="6" y="11" width="1" height="1" fill="#FFFFFF"/><rect x="7" y="11" width="1" height="1" fill="#FFFFFF"/><rect x="11" y="11" width="1" height="1" fill="#FFFFFF"/><rect x="14" y="11" width="1" height="1" fill="#FFFFFF"/><rect x="16" y="11" width="1" height="1" fill="#FB923C"/><rect x="3" y="12" width="1" height="1" fill="#FB923C"/><rect x="5" y="12" width="1" height="1" fill="#FFFFFF"/><rect x="6" y="12" width="1" height="1" fill="#FFFFFF"/><rect x="7" y="12" width="1" height="1" fill="#FFFFFF"/><rect x="11" y="12" width="1" height="1" fill="#FFFFFF"/><rect x="14" y="12" width="1" height="1" fill="#FFFFFF"/><rect x="16" y="12" width="1" height="1" fill="#FB923C"/><rect x="3" y="13" width="1" height="1" fill="#FB923C"/><rect x="16" y="13" width="1" height="1" fill="#FB923C"/><rect x="3" y="14" width="1" height="1" fill="#FB923C"/><rect x="4" y="14" width="1" height="1" fill="#FB923C"/><rect x="5" y="14" width="1" height="1" fill="#FB923C"/><rect x="6" y="14" width="1" height="1" fill="#FB923C"/><rect x="7" y="14" width="1" height="1" fill="#FB923C"/><rect x="8" y="14" width="1" height="1" fill="#FB923C"/><rect x="9" y="14" width="1" height="1" fill="#FB923C"/><rect x="10" y="14" width="1" height="1" fill="#FB923C"/><rect x="11" y="14" width="1" height="1" fill="#FB923C"/><rect x="12" y="14" width="1" height="1" fill="#FB923C"/><rect x="13" y="14" width="1" height="1" fill="#FB923C"/><rect x="14" y="14" width="1" height="1" fill="#FB923C"/><rect x="15" y="14" width="1" height="1" fill="#FB923C"/><rect x="16" y="14" width="1" height="1" fill="#FB923C"/></svg>