<svg xmlns="http://www.w3.org/2000/svg" viewBox="0 0 20 20" width="56" height="56" shape-rendering="crispEdges"><rect width="20" height="20" rx="3" fill="#0B1220"/><rect x="5" y="3" width="1" height="1" fill="#F87171"/><rect x="4" y="4" width="1" height="1" fill="#F87171"/><rect x="5" y="4" width="1" height="1" fill="#F87171"/><rect x="6" y="4" width="1" height="1" fill="#F87171"/><rect x="14" y="4" width="1" height="1" fill="#4ADE80"/><rect x="3" y="5" width="1" height="1" fill="#F87171"/><rect x="4" y="5" width="1" height="1" fill="#F87171"/><rect x="5" y="5" width="1" height="1" fill="#F87171"/><rect x="6" y="5" width="1" height="1" fill="#F87171"/><rect x="7" y="5" width="1" height="1" fill="#F87171"/><rect x="14" y="5" width="1" height="1" fill="#4ADE80"/><rect x="2" y="6" width="1" height="1" fill="#F87171"/><rect x="3" y="6" width="1" height="1" fill="#F87171"/><rect x="4" y="6" width="1" height="1" fill="#F87171"/><rect x="5" y="6" width="1" height="1" fill="#F87171"/><rect x="6" y="6" width="1" height="1" fill="#F87171"/><rect x="7" y="6" width="1" height="1" fill="#F87171"/><rect x="8" y="6" width="1" height="1" fill="#F87171"/><rect x="14" y="6" width="1" height="1" fill="#4ADE80"/><rect x="5" y="7" width="1" height="1" fill="#F87171"/><rect x="14" y="7" width="1" height="1" fill="#4ADE80"/><rect x="5" y="8" width="1" height="1" fill="#F87171"/><rect x="14" y="8" width="1" height="1" fill="#4ADE80"/><rect x="5" y="9" width="1" height="1" fill="#F87171"/><rect x="14" y="9" width="1" height="1" fill="#4ADE80"/><rect x="5" y="10" width="1" height="1" fill="#F87171"/><rect x="14" y="10" width="1" height="1" fill="#4ADE80"/><rect x="5" y="11" width="1" height="1" fill="#F87171"/><rect x="14" y="11" width="1" height="1" fill="#4ADE80"/><rect x="5" y="12" width="1" height="1" fill="#F87171"/><rect x="11" y="12" width="1" height="1" fill="#4ADE80"/><rect x="12" y="12" width="1" height="1" fill="#4ADE80"/><rect x="13" y="12" width="1" height="1" fill="#4ADE80"/><rect x="14" y="12" width="1" height="1" fill="#4ADE80"/><rect x="15" y="12" width="1" height="1" fill="#4ADE80"/><rect x="16" y="12" width="1" height="1" fill="#4ADE80"/><rect x="17" y="12" width="1" height="1" fill="#4ADE80"/><rect x="5" y="13" width="1" height="1" fill="#F87171"/><rect x="12" y="13" width="1" height="1" fill="#4ADE80"/><rect x="13" y="13" width="1" height="1" fill="#4ADE80"/><rect x="14" y="13" width="1" height="1" fill="#4ADE80"/><rect x="15" y="13" width="1" height="1" fill="#4ADE80"/><rect x="16" y="13" width="1" height="1" fill="#4ADE80"/><rect x="5" y="14" width="1" height="1" fill="#F87171"/><rect x="13" y="14" width="1" height="1" fill="#4ADE80"/><rect x="14" y="14" width="1" height="1" fill="#4ADE80"/><rect x="15" y="14" width="1" height="1" fill="#4ADE80"/><rect x="5" y="15" width="1" height="1" fill="#F87171"/><rect x="14" y="15" width="1" height="1" fill="#4ADE80"/><rect x="2" y="17" width="1" height="1" fill="#FFFFFF"/><rect x="3" y="17" width="1" height="1" fill="#FFFFFF"/><rect x="4" y="17" width="1" height="1" fill="#FFFFFF"/><rect x="5" y="17" width="1" height="1" fill="#FFFFFF"/><rect x="6" y="17" width="1" height="1" fill="#FFFFFF"/><rect x="7" y="17" width="1" height="1" fill="#FFFFFF"/><rect x="8" y="17" width="1" height="1" fill="#FFFFFF"/><rect x="9" y="17" width="1" height="1" fill="#FFFFFF"/><rect x="10" y="17" width="1" height="1" fill="#FFFFFF"/><rect x="11" y="17" width="1" height="1" fill="#FFFFFF"/><rect x="12" y="17" width="1" height="1" fill="#FFFFFF"/><rect x="13" y="17" width="1" height="1" fill="#FFFFFF"/><rect x="14" y="17" width="1" height="1" fill="#FFFFFF"/><rect x="15" y="17" width="1" height="1" fill="#FFFFFF"/><rect x="16" y="17" width="1" height="1" fill="#FFFFFF"/><rect x="17" y="17" width="1" height="1" fill="#FFFFFF"/></svg>